<svg width="650" height="287" viewBox="0 0 650 287" fill="none" xmlns="http://www.w3.org/2000/svg">
<path fill-rule="evenodd" clip-rule="evenodd" d="M372.944 543.525C337.923 568.727 298.622 592.943 255.479 592.418C209.35 591.857 167.383 567.189 129.707 540.567C87.7028 510.885 46.2362 477.292 25.7747 430.104C4.17214 380.285 -12.5486 318.639 12.6094 270.517C38.1854 221.595 118.681 231.005 152.623 187.469C193.281 135.317 158.453 28.6199 220.018 4.48056C278.608 -18.4924 320.563 78.0563 380.169 98.2492C432.973 116.138 500.078 79.5798 543.801 114.17C587.078 148.408 579.375 215.697 595.379 268.508C611.7 322.362 674.816 385.114 639.089 428.592C594.737 482.566 500.04 434.882 435.905 462.578C403.979 476.365 401.171 523.212 372.944 543.525Z" fill="#FFD700"/>
</svg>
