<svg width="257" height="505" viewBox="0 0 257 505" fill="none" xmlns="http://www.w3.org/2000/svg">
<path fill-rule="evenodd" clip-rule="evenodd" d="M106.452 4.76389C143.596 21.1383 126.639 83.4504 148.576 117.605C176.719 161.424 278.243 186.811 252.422 232.038C217.077 293.944 95.4987 236.978 49.3849 291.339C17.0918 329.408 98.7991 390.646 79.0016 436.474C63.4036 472.58 8.40749 471.611 -30.6157 476.524C-67.4984 481.168 -103.162 461.065 -140.214 464.076C-189.509 468.082 -242.844 525.623 -283.213 497.051C-324.656 467.718 -279.903 392.374 -304.376 347.887C-326.22 308.179 -399.337 309.344 -410.618 265.451C-421.467 223.235 -372.239 188.686 -355.65 148.379C-341.129 113.093 -350.775 61.6969 -318.432 41.4519C-281.685 18.4499 -232.855 49.9329 -189.833 44.5856C-162.509 41.1895 -140.815 17.3178 -113.315 15.9574C-85.8621 14.5994 -61.9428 38.2992 -34.4924 36.9011C14.1641 34.4228 61.872 -14.8888 106.452 4.76389Z" fill="#FFD700"/>
</svg>
