<svg width="611" height="543" viewBox="0 0 611 543" fill="none" xmlns="http://www.w3.org/2000/svg">
<path fill-rule="evenodd" clip-rule="evenodd" d="M284.724 18.9188C331.36 15.036 374.837 -3.11037 421.493 0.52156C478.361 4.94838 560.689 -9.61035 584.44 42.2498C611.508 101.355 518.681 159.345 523.904 224.144C528.258 278.164 606.529 304.73 609.955 358.817C613.453 414.03 585.223 472.741 541.825 507.052C498.612 541.216 436.807 547.8 382.485 538.654C333.824 530.461 308.854 468.364 260.284 459.65C196.75 448.252 128.24 513.343 71.3556 482.836C19.2039 454.868 -9.227 379.773 3.62479 322.007C17.2673 260.687 111.735 250.347 135.974 192.393C157.907 139.953 90.8582 68.1194 127.859 24.9691C162.511 -15.4427 231.673 23.3357 284.724 18.9188Z" fill="#FFD700"/>
</svg>
