<svg width="30" height="31" viewBox="0 0 30 31" fill="none" xmlns="http://www.w3.org/2000/svg">
<path id="Vector" d="M26.7857 0.358887H3.21429C2.3618 0.358887 1.54424 0.697534 0.941442 1.30033C0.338647 1.90312 0 2.72069 0 3.57317L0 27.1446C0 27.9971 0.338647 28.8146 0.941442 29.4174C1.54424 30.0202 2.3618 30.3589 3.21429 30.3589H12.4051V20.1596H8.18638V15.3589H12.4051V11.7C12.4051 7.53813 14.8828 5.23924 18.6777 5.23924C20.4951 5.23924 22.3955 5.56335 22.3955 5.56335V9.64817H20.3016C18.2384 9.64817 17.5949 10.9285 17.5949 12.2417V15.3589H22.2007L21.4641 20.1596H17.5949V30.3589H26.7857C27.6382 30.3589 28.4558 30.0202 29.0586 29.4174C29.6614 28.8146 30 27.9971 30 27.1446V3.57317C30 2.72069 29.6614 1.90312 29.0586 1.30033C28.4558 0.697534 27.6382 0.358887 26.7857 0.358887Z" fill="white"/>
</svg>
