<svg width="30" height="25" viewBox="0 0 30 25" fill="none" xmlns="http://www.w3.org/2000/svg">
<path id="Vector" d="M26.9163 6.06561C26.9354 6.3321 26.9354 6.59864 26.9354 6.86513C26.9354 14.9933 20.7488 24.3588 9.44166 24.3588C5.95813 24.3588 2.7221 23.3499 0 21.5987C0.494943 21.6558 0.970785 21.6748 1.48477 21.6748C4.3591 21.6748 7.00509 20.704 9.11804 19.0479C6.41499 18.9908 4.14974 17.2205 3.36927 14.7839C3.75001 14.841 4.1307 14.8791 4.53049 14.8791C5.0825 14.8791 5.63457 14.8029 6.1485 14.6697C3.33124 14.0986 1.21823 11.624 1.21823 8.63543V8.55931C2.03673 9.01617 2.98859 9.3017 3.9974 9.33973C2.3413 8.23564 1.25631 6.35114 1.25631 4.21914C1.25631 3.07703 1.56083 2.03007 2.09386 1.11636C5.12053 4.84733 9.67006 7.28384 14.7715 7.55039C14.6764 7.09353 14.6193 6.61769 14.6193 6.14179C14.6193 2.75341 17.3604 -0.00671387 20.7678 -0.00671387C22.5381 -0.00671387 24.137 0.735672 25.2602 1.93491C26.6497 1.66843 27.9822 1.15444 29.1625 0.450143C28.7055 1.87784 27.7348 3.07709 26.4594 3.83846C27.6967 3.70527 28.896 3.36256 30 2.88672C29.1626 4.10494 28.1156 5.18993 26.9163 6.06561Z" fill="white"/>
</svg>
