<svg width="30" height="22" viewBox="0 0 30 22" fill="none" xmlns="http://www.w3.org/2000/svg">
<path id="Vector" d="M29.3731 3.65934C29.0281 2.36021 28.0115 1.33705 26.7208 0.989831C24.3813 0.358887 15 0.358887 15 0.358887C15 0.358887 5.61879 0.358887 3.2792 0.989831C1.98847 1.33711 0.971904 2.36021 0.626879 3.65934C0 6.01409 0 10.9271 0 10.9271C0 10.9271 0 15.84 0.626879 18.1948C0.971904 19.4939 1.98847 20.4744 3.2792 20.8217C5.61879 21.4526 15 21.4526 15 21.4526C15 21.4526 24.3812 21.4526 26.7208 20.8217C28.0115 20.4744 29.0281 19.4939 29.3731 18.1948C30 15.84 30 10.9271 30 10.9271C30 10.9271 30 6.01409 29.3731 3.65934ZM11.9318 15.3877V6.46645L19.7727 10.9272L11.9318 15.3877Z" fill="white"/>
</svg>
